<?xml version="1.0" encoding="UTF-8" standalone="no"?>
<!-- Generator: Adobe Illustrator 19.0.0, SVG Export Plug-In . SVG Version: 6.00 Build 0)  -->

<svg
   xmlns:dc="http://purl.org/dc/elements/1.1/"
   xmlns:cc="http://creativecommons.org/ns#"
   xmlns:rdf="http://www.w3.org/1999/02/22-rdf-syntax-ns#"
   xmlns:svg="http://www.w3.org/2000/svg"
   xmlns="http://www.w3.org/2000/svg"
   xmlns:sodipodi="http://sodipodi.sourceforge.net/DTD/sodipodi-0.dtd"
   xmlns:inkscape="http://www.inkscape.org/namespaces/inkscape"
   version="1.1"
   id="Capa_1"
   x="0px"
   y="0px"
   viewBox="0 0 609.51648 609.51636"
   xml:space="preserve"
   sodipodi:docname="cactuspg.svg"
   width="609.51648"
   height="609.51636"
   inkscape:version="0.92.2 2405546, 2018-03-11"><metadata
   id="metadata2556"><rdf:RDF><cc:Work
       rdf:about=""><dc:format>image/svg+xml</dc:format><dc:type
         rdf:resource="http://purl.org/dc/dcmitype/StillImage" /><dc:title></dc:title></cc:Work></rdf:RDF></metadata><defs
   id="defs2554"><inkscape:perspective
     id="perspective10"
     inkscape:persp3d-origin="50.957146 : 91.821418 : 1"
     inkscape:vp_z="104.47465 : 0 : 0"
     inkscape:vp_y="5.5109105e-14 : 899.99991 : 0"
     inkscape:vp_x="-85.580623 : 59.924198 : 0"
     sodipodi:type="inkscape:persp3d" /></defs><sodipodi:namedview
   pagecolor="#ffffff"
   bordercolor="#666666"
   borderopacity="1"
   objecttolerance="10"
   gridtolerance="10"
   guidetolerance="10"
   inkscape:pageopacity="0"
   inkscape:pageshadow="2"
   inkscape:window-width="1920"
   inkscape:window-height="1016"
   id="namedview2552"
   showgrid="false"
   showborder="true"
   inkscape:snap-bbox="true"
   inkscape:bbox-paths="true"
   inkscape:snap-bbox-edge-midpoints="true"
   inkscape:bbox-nodes="true"
   inkscape:snap-bbox-midpoints="true"
   inkscape:object-paths="false"
   inkscape:snap-intersection-paths="false"
   inkscape:snap-midpoints="false"
   inkscape:snap-smooth-nodes="false"
   inkscape:snap-object-midpoints="false"
   inkscape:snap-center="false"
   inkscape:object-nodes="false"
   inkscape:snap-nodes="false"
   inkscape:snap-others="false"
   fit-margin-top="0"
   fit-margin-left="0"
   fit-margin-right="0"
   fit-margin-bottom="0"
   inkscape:zoom="0.4609375"
   inkscape:cx="291.28524"
   inkscape:cy="197.65368"
   inkscape:window-x="0"
   inkscape:window-y="30"
   inkscape:window-maximized="1"
   inkscape:current-layer="Capa_1" />


























<rect
   style="fill:#afdec0;fill-opacity:0.31372549;stroke:none;stroke-width:37.91859818;stroke-linecap:square;stroke-linejoin:round;stroke-miterlimit:4;stroke-dasharray:none;stroke-opacity:1;paint-order:normal"
   id="rect3314-5"
   width="609.51648"
   height="175.17622"
   x="1.2304688e-06"
   y="434.34015" /><g
   id="g3270"
   transform="translate(47.888579,51.171944)"><polygon
     id="polygon2483"
     points="412.096,367.696 235.983,347.68 255.999,512 375.521,512 "
     style="fill:#f46036;fill-opacity:1" /><polygon
     id="polygon2485"
     points="99.902,367.696 136.477,512 255.999,512 255.999,347.68 "
     style="fill:#f78b6c;fill-opacity:1" /><rect
     id="rect2487"
     height="46.380001"
     width="30"
     style="fill:#008e7e;fill-opacity:1"
     x="240.99899"
     y="0" /><g
     style="fill:#9dffaf;fill-opacity:1"
     id="g2497">
	
		<rect
   id="rect2489"
   height="30.000999"
   width="46.381001"
   style="fill:#9dffaf;fill-opacity:1"
   transform="matrix(-0.3827,-0.9239,0.9239,-0.3827,237.271,229.1212)"
   y="20.291"
   x="171.991" />
	
		<rect
   id="rect2491"
   height="30"
   width="46.380001"
   style="fill:#9dffaf;fill-opacity:1"
   transform="matrix(-0.7071,-0.7071,0.7071,-0.7071,195.8642,220.6019)"
   y="54.736"
   x="120.43" />
	
		<rect
   id="rect2493"
   height="30.000999"
   width="46.381001"
   style="fill:#9dffaf;fill-opacity:1"
   transform="matrix(-0.9239,-0.3827,0.3827,-0.9239,163.6086,275.1528)"
   y="106.304"
   x="85.980003" />
	<rect
   id="rect2495"
   height="30"
   width="46.380001"
   style="fill:#9dffaf;fill-opacity:1"
   y="167.12"
   x="73.884003" />
</g><rect
     id="rect2499"
     height="30"
     width="46.380001"
     style="fill:#008e7e;fill-opacity:1"
     y="167.12"
     x="391.729" /><rect
     id="rect2501"
     height="30"
     width="46.380001"
     style="fill:#9dffaf;fill-opacity:1"
     y="228.98"
     x="73.884003" /><g
     style="fill:#008e7e;fill-opacity:1"
     id="g2511">
	<rect
   id="rect2503"
   height="30"
   width="46.380001"
   style="fill:#008e7e;fill-opacity:1"
   y="228.98"
   x="391.729" />
	
		<rect
   id="rect2505"
   height="46.381001"
   width="30.000999"
   style="fill:#008e7e;fill-opacity:1"
   transform="matrix(-0.3827,-0.9239,0.9239,-0.3827,444.9121,539.9106)"
   y="98.125999"
   x="387.83301" />
	
		<rect
   id="rect2507"
   height="46.380001"
   width="30"
   style="fill:#008e7e;fill-opacity:1"
   transform="matrix(-0.7071,-0.7071,0.7071,-0.7071,579.5547,379.5245)"
   y="46.542999"
   x="353.38" />
	
		<rect
   id="rect2509"
   height="46.381001"
   width="30.000999"
   style="fill:#008e7e;fill-opacity:1"
   transform="matrix(-0.9239,-0.3827,0.3827,-0.9239,596.0198,189.1609)"
   y="12.111"
   x="301.823" />
</g><path
     id="path2513"
     d="M 406.731,182.115 C 406.731,99.001 339.113,31.383 255.999,31.383 L 235.983,340.852 406.731,320.836 Z"
     style="fill:#5eeb5b;fill-opacity:1"
     inkscape:connector-curvature="0" /><path
     id="path2515"
     d="m 105.267,182.115 v 138.721 l 150.732,20.016 V 31.383 c -83.114,0 -150.732,67.618 -150.732,150.732 z"
     style="fill:#61ff7e;fill-opacity:1"
     inkscape:connector-curvature="0" /><polygon
     id="polygon2517"
     points="255.999,305.836 235.983,338.849 255.999,367.696 440.651,367.696 440.651,305.836 "
     style="fill:#f78b6c;fill-opacity:1" /><rect
     id="rect2519"
     height="61.860001"
     width="184.64999"
     style="fill:#f9ab95;fill-opacity:1"
     y="305.84"
     x="71.348999" /><g
     id="g2521">
</g><g
     id="g2523">
</g><g
     id="g2525">
</g><g
     id="g2527">
</g><g
     id="g2529">
</g><g
     id="g2531">
</g><g
     id="g2533">
</g><g
     id="g2535">
</g><g
     id="g2537">
</g><g
     id="g2539">
</g><g
     id="g2541">
</g><g
     id="g2543">
</g><g
     id="g2545">
</g><g
     id="g2547">
</g><g
     id="g2549">
</g><g
     transform="matrix(1.2239889,0,0,1.2239889,758.63019,-473.64161)"
     id="g902" /><g
     transform="matrix(1.2239889,0,0,1.2239889,758.63019,-473.64161)"
     id="g904" /><g
     transform="matrix(1.2239889,0,0,1.2239889,758.63019,-473.64161)"
     id="g906" /><g
     transform="matrix(1.2239889,0,0,1.2239889,758.63019,-473.64161)"
     id="g908" /><g
     transform="matrix(1.2239889,0,0,1.2239889,758.63019,-473.64161)"
     id="g910" /><g
     transform="matrix(1.2239889,0,0,1.2239889,758.63019,-473.64161)"
     id="g912" /><g
     transform="matrix(1.2239889,0,0,1.2239889,758.63019,-473.64161)"
     id="g914" /><g
     transform="matrix(1.2239889,0,0,1.2239889,758.63019,-473.64161)"
     id="g916" /><g
     transform="matrix(1.2239889,0,0,1.2239889,758.63019,-473.64161)"
     id="g918" /><g
     transform="matrix(1.2239889,0,0,1.2239889,758.63019,-473.64161)"
     id="g920" /><g
     transform="matrix(1.2239889,0,0,1.2239889,758.63019,-473.64161)"
     id="g922" /><g
     transform="matrix(1.2239889,0,0,1.2239889,758.63019,-473.64161)"
     id="g924" /><g
     transform="matrix(1.2239889,0,0,1.2239889,758.63019,-473.64161)"
     id="g926" /><g
     transform="matrix(1.2239889,0,0,1.2239889,758.63019,-473.64161)"
     id="g928" /><g
     transform="matrix(1.2239889,0,0,1.2239889,758.63019,-473.64161)"
     id="g930" /></g><path
   inkscape:connector-curvature="0"
   id="path59"
   style="fill:#d7ffe5;fill-opacity:0.31372549;fill-rule:evenodd;stroke:none;stroke-width:4.46640158;stroke-linejoin:round"
   d="M 0,175.17622 V 609.51636 H 609.51648 V 175.17622 Z" /><rect
   style="fill:#4d9f6b;fill-opacity:0.31372549;stroke:none;stroke-width:37.91859818;stroke-linecap:square;stroke-linejoin:round;stroke-miterlimit:4;stroke-dasharray:none;stroke-opacity:1;paint-order:normal"
   id="rect3314"
   width="609.51648"
   height="175.17622"
   x="1.2304688e-06"
   y="0" /></svg>