<?xml version="1.0" encoding="UTF-8" standalone="no"?>
<!-- Created with Inkscape (http://www.inkscape.org/) -->

<svg
   xmlns:dc="http://purl.org/dc/elements/1.1/"
   xmlns:cc="http://creativecommons.org/ns#"
   xmlns:rdf="http://www.w3.org/1999/02/22-rdf-syntax-ns#"
   xmlns:svg="http://www.w3.org/2000/svg"
   xmlns="http://www.w3.org/2000/svg"
   xmlns:sodipodi="http://sodipodi.sourceforge.net/DTD/sodipodi-0.dtd"
   xmlns:inkscape="http://www.inkscape.org/namespaces/inkscape"
   width="161.2679mm"
   height="161.26788mm"
   viewBox="0 0 161.2679 161.26788"
   version="1.1"
   id="svg8"
   inkscape:version="0.92.2 2405546, 2018-03-11"
   sodipodi:docname="corn.svg">
  <defs
     id="defs2">
    <inkscape:perspective
       sodipodi:type="inkscape:persp3d"
       inkscape:vp_x="-85.580624 : 59.924194 : 0"
       inkscape:vp_y="5.5109106e-14 : 899.99985 : 0"
       inkscape:vp_z="104.47465 : 0 : 0"
       inkscape:persp3d-origin="50.957147 : 91.821412 : 1"
       id="perspective10" />
  </defs>
  <sodipodi:namedview
     id="base"
     pagecolor="#ffffff"
     bordercolor="#666666"
     borderopacity="1.0"
     inkscape:pageopacity="0.0"
     inkscape:pageshadow="2"
     inkscape:zoom="0.49497475"
     inkscape:cx="138.71293"
     inkscape:cy="129.23299"
     inkscape:document-units="mm"
     inkscape:current-layer="layer1"
     showgrid="false"
     inkscape:snap-bbox="true"
     inkscape:bbox-nodes="true"
     inkscape:snap-bbox-edge-midpoints="true"
     inkscape:snap-bbox-midpoints="true"
     fit-margin-top="0"
     fit-margin-left="0"
     fit-margin-right="0"
     fit-margin-bottom="0"
     inkscape:window-width="1920"
     inkscape:window-height="1016"
     inkscape:window-x="0"
     inkscape:window-y="30"
     inkscape:window-maximized="1" />
  <metadata
     id="metadata5">
    <rdf:RDF>
      <cc:Work
         rdf:about="">
        <dc:format>image/svg+xml</dc:format>
        <dc:type
           rdf:resource="http://purl.org/dc/dcmitype/StillImage" />
        <dc:title></dc:title>
      </cc:Work>
    </rdf:RDF>
  </metadata>
  <g
     inkscape:label="Layer 1"
     inkscape:groupmode="layer"
     id="layer1"
     transform="translate(-31.837645,-37.814423)">
    <rect
       style="fill:#afdec0;fill-opacity:0.31372549;stroke:none;stroke-width:10.03262901;stroke-linecap:square;stroke-linejoin:round;stroke-miterlimit:4;stroke-dasharray:none;stroke-opacity:1;paint-order:normal"
       id="rect3314-5"
       width="161.2679"
       height="46.348709"
       x="31.837646"
       y="152.73358" />
    <g
       id="g1480"
       transform="matrix(0.2441997,0,0,0.2441997,49.956592,50.877452)">
      <path
         id="path1379"
         d="m 9.640625,405.27734 c 12.851563,-12.85547 33.691406,-12.85547 46.542969,0 l 50.539066,50.53907 c 12.85547,12.85156 12.85547,33.6914 0,46.54296 -12.851566,12.85547 -33.69141,12.85547 -46.542972,0 L 9.640625,451.82031 c -12.855469,-12.85156 -12.855469,-33.6914 0,-46.54297 z m 0,0"
         inkscape:connector-curvature="0"
         style="fill:#216600" />
      <path
         id="path1381"
         d="m 79.839844,432.16016 c 44.988286,44.98437 117.925776,44.98437 162.910156,0 L 452.99219,221.91797 C 490.77344,184.13672 512,132.89062 512,79.457031 512,58.382812 503.62891,38.175781 488.72656,23.273438 473.82422,8.371094 453.61719,0 432.54297,0 379.10937,0 327.86328,21.226562 290.08203,59.007812 L 79.839844,269.25 c -44.984375,44.98828 -44.984375,117.92187 0,162.91016 z m 0,0"
         inkscape:connector-curvature="0"
         style="fill:#f4ac03" />
      <path
         id="path1383"
         d="m 470.27344,51.367188 c -6.42578,6.425781 -6.42578,16.84375 0,23.269531 l 13.63281,13.636719 c 6.42578,6.425781 6.42578,16.843752 0,23.269532 -6.42578,6.42578 -16.84375,6.42578 -23.27344,0 L 447,97.910156 c -6.42578,-6.425781 -16.84375,-6.425781 -23.27344,0 -6.42578,6.425784 -6.42578,16.847654 0,23.273434 l 13.63672,13.63282 c 6.42578,6.42578 6.42578,16.84375 0,23.27343 -6.42969,6.42578 -16.84766,6.42578 -23.27344,0 l -13.63281,-13.63281 c -6.42969,-6.42969 -16.84766,-6.42969 -23.27344,0 -6.42968,6.42578 -6.42968,16.84375 0,23.27344 l 13.63282,13.63281 c 6.42578,6.42578 6.42578,16.84375 0,23.26953 v 0.004 c -6.42578,6.42578 -16.84766,6.42578 -23.27344,0 L 353.91016,191 c -6.4375,-6.41797 -16.85547,-6.40234 -23.27344,0.0352 -6.40625,6.42187 -6.40625,16.8164 0,23.23828 l 13.63281,13.63281 c 6.42578,6.42578 6.42578,16.84766 0,23.27344 -6.42578,6.42578 -16.84375,6.42578 -23.27344,0 l -6.8164,-6.81641 -34.90625,34.91016 58.17969,58.17968 115.53906,-115.53515 C 490.77344,184.13281 512,132.89062 512,79.457031 511.88672,61.601562 505.74219,44.3125 494.5625,30.390625 482.17969,40.867188 472.33594,49.304688 470.27344,51.367188 Z m 0,0"
         inkscape:connector-curvature="0"
         style="fill:#f48200" />
      <path
         id="path1385"
         d="m 167.73047,167.73047 c 6.42578,-6.42969 16.84375,-6.42969 23.26953,0 l 13.63281,13.63281 c 6.42969,6.42578 6.42969,16.84375 0,23.27344 -6.42578,6.42578 -16.84375,6.42578 -23.26953,0 L 167.73047,191 c -6.42969,-6.42578 -6.42969,-16.84375 0,-23.26953 z m 0,0"
         inkscape:connector-curvature="0"
         style="fill:#ffd432" />
      <path
         id="path1387"
         d="m 353.91016,74.636719 c 6.42578,-6.425781 16.84765,-6.425781 23.27343,0 l 13.63282,13.632812 c 6.42578,6.429688 6.42578,16.847659 0,23.273439 -6.42579,6.42969 -16.84766,6.42969 -23.27344,0 L 353.91016,97.910156 c -6.42579,-6.425781 -6.42579,-16.84375 0,-23.273437 z m 0,0"
         inkscape:connector-curvature="0"
         style="fill:#f4920b" />
      <path
         id="path1389"
         d="m 307.36719,121.18359 c 6.42578,-6.42578 16.84375,-6.42578 23.26953,0 l 13.63281,13.63282 c 6.42969,6.42578 6.42969,16.84765 0,23.27343 -6.42578,6.42578 -16.84375,6.42578 -23.26953,0 l -13.63281,-13.63281 c -6.42969,-6.42578 -6.42969,-16.84765 0,-23.27344 z m 0,0"
         inkscape:connector-curvature="0"
         style="fill:#f4920b" />
      <path
         id="path1391"
         d="m 260.82031,167.73047 c 6.42578,-6.42969 16.84766,-6.42969 23.27344,0 l 13.63281,13.63281 c 6.42578,6.42578 6.42578,16.84375 0,23.27344 -6.42578,6.42578 -16.84765,6.42578 -23.27344,0 L 260.82031,191 c -6.42578,-6.42578 -6.42578,-16.84375 0,-23.26953 z m 0,0"
         inkscape:connector-curvature="0"
         style="fill:#f4920b" />
      <path
         id="path1393"
         d="m 214.27344,214.27344 c 6.42968,-6.42578 16.84765,-6.42578 23.27343,0 l 13.63282,13.63281 c 6.42578,6.42969 6.42578,16.84766 0,23.27344 -6.42578,6.42578 -16.84375,6.42578 -23.27344,0 l -13.63281,-13.63282 c -6.42578,-6.42578 -6.42578,-16.84765 0,-23.27343 z m 0,0"
         inkscape:connector-curvature="0"
         style="fill:#f4920b" />
      <path
         id="path1395"
         d="M 98.496094,413.50391 168.3125,343.6875 c 26.34375,-26.34375 41.14062,-62.07031 41.14062,-99.32422 0,-37.25391 -14.79687,-72.98047 -41.14062,-99.32422 l -42.30859,-42.30859 c -6.17188,-6.171876 -14.54297,-9.640626 -23.27344,-9.640626 -18.175782,0 -32.914064,14.738286 -32.914064,32.914066 V 145.625 c 0,25.96875 -10.3125,50.87109 -28.675781,69.23437 C 14.796875,241.19922 0,276.92969 0,314.17969 c 0,37.2539 14.796875,72.98437 41.140625,99.32422 15.839844,15.83984 41.515625,15.83984 57.355469,0 z m 0,0"
         inkscape:connector-curvature="0"
         style="fill:#378900" />
      <path
         id="path1397"
         d="M 116.36328,232.72656 C 116.36328,245.58203 105.94531,256 93.089844,256 80.238281,256 69.816406,245.58203 69.816406,232.72656 c 0,-12.85156 10.421875,-23.27344 23.273438,-23.27344 12.855466,0 23.273436,10.42188 23.273436,23.27344 z m 0,0"
         inkscape:connector-curvature="0"
         style="fill:#4da900" />
      <path
         id="path1399"
         d="M 69.816406,302.54687 C 69.816406,276.83984 59.398438,256 46.546875,256 c -12.855469,0 -23.273437,20.83984 -23.273437,46.54687 0,25.70313 10.417968,46.54297 23.273437,46.54297 12.851563,0 23.269531,-20.83984 23.269531,-46.54297 z m 0,0"
         inkscape:connector-curvature="0"
         style="fill:#4da900" />
      <path
         id="path1401"
         d="m 156,142.59375 c -12.85156,0.004 -23.26953,10.42578 -23.26563,23.28125 0.004,5.75391 2.13672,11.30859 5.99219,15.58203 14,15.5625 22.42188,35.33984 23.94531,56.21875 0.86719,12.17188 10.98829,21.60547 23.1875,21.61719 0.55469,0 1.11719,-0.0195 1.67969,-0.0586 12.82031,-0.91406 22.47266,-12.04687 21.5586,-24.86718 -2.23047,-31.23828 -14.83204,-60.83594 -35.8125,-84.08985 C 168.875,145.375 162.58984,142.58203 156,142.59375 Z m 0,0"
         inkscape:connector-curvature="0"
         style="fill:#216600" />
      <path
         id="path1403"
         d="m 60.996094,357.91016 64.187496,-64.1875 c 19.27735,-19.27344 50.53125,-19.27344 69.8086,0 19.27734,19.27734 19.27734,50.53125 0,69.80859 l -64.1875,64.1875 c -19.27735,19.27734 -50.531252,19.27734 -69.808596,0 -19.273438,-19.27734 -19.273438,-50.53125 0,-69.80859 z m 0,0"
         inkscape:connector-curvature="0"
         style="fill:#216600" />
      <path
         id="path1405"
         d="m 197.79687,511.55469 c -37.25,0 -72.98437,-14.75 -99.386714,-41.02735 -28.574218,-28.4414 -28.683594,-74.66015 -0.246094,-103.23828 0.04297,-0.0391 0.08203,-0.082 0.125,-0.12109 l 93.742188,-93.7461 c 26.34375,-26.33984 62.07031,-41.14062 99.32422,-41.14062 37.25,0 72.98047,14.80078 99.32031,41.14062 L 455.25,338 c 6.25781,6.25391 9.80859,14.71484 9.89062,23.55859 0.17188,18.64844 -14.80468,33.90235 -33.44921,34.07422 -0.10547,0.004 -0.21094,0.004 -0.31641,0.004 -37.79297,0 -74.04297,14.97656 -100.82031,41.64844 l -33.32031,33.19531 c -26.40625,26.30469 -62.16407,41.07422 -99.43751,41.07422 z m 0,0"
         inkscape:connector-curvature="0"
         style="fill:#4da900" />
      <path
         id="path1407"
         d="m 291.35156,255.55469 c -31.09375,-0.082 -60.93359,12.27734 -82.86328,34.32031 l -0.73828,0.73828 c -0.46875,0.46875 -1.14063,1.14063 -1.94531,1.94531 -0.80469,0.8086 -1.7461,1.7461 -2.75391,2.75391 -1.00781,1.00781 -2.08203,2.08203 -3.15625,3.15625 -1.07422,1.07422 -2.14844,2.14844 -3.15234,3.15234 l -5.4375,5.4375 c -9.08203,9.09766 -9.07422,23.83203 0.0195,32.91407 9.08594,9.07421 23.80469,9.07421 32.89062,0 l 17.17578,-17.17579 c 13.22266,-13.29296 31.21485,-20.74218 49.96094,-20.69531 7.00781,-0.0117 13.97656,1.01172 20.6875,3.03906 12.30078,3.73047 25.29297,-3.21875 29.02344,-15.51953 3.72656,-12.29297 -3.21094,-25.28125 -15.5,-29.01953 -8.49609,-2.57422 -17.26172,-4.17578 -26.12109,-4.77344 -0.0899,-0.004 -0.17969,-0.0117 -0.26953,-0.0156 h -0.004 c -0.0898,-0.008 -0.17969,-0.0117 -0.26953,-0.0195 h -0.004 c -0.0898,-0.004 -0.17969,-0.0117 -0.26953,-0.0156 h -0.004 c -0.0898,-0.008 -0.17968,-0.0117 -0.26953,-0.0156 h -0.008 l -0.12891,-0.008 h -0.004 l -0.12891,-0.008 h -0.0117 l -0.1289,-0.008 -0.13282,-0.008 h -0.0117 c -0.0859,-0.004 -0.17579,-0.0117 -0.26172,-0.0156 h -0.0117 l -0.12891,-0.008 -0.13281,-0.004 h -0.008 c -0.0899,-0.008 -0.17578,-0.0117 -0.26563,-0.0156 h -0.0117 l -0.1289,-0.004 -0.13282,-0.008 h -0.0117 l -0.12891,-0.004 -0.13281,-0.008 h -0.0117 l -0.125,-0.004 h -0.008 l -0.125,-0.004 -0.0195,-0.004 -0.12109,-0.004 h -0.008 l -0.125,-0.004 h -0.0234 l -0.11719,-0.008 h -0.008 l -0.125,-0.004 h -0.0234 l -0.11718,-0.004 h -0.008 l -0.125,-0.004 -0.0273,-0.004 -0.11328,-0.004 h -0.008 l -0.125,-0.004 h -0.0234 l -0.1211,-0.004 h -0.008 l -0.12109,-0.004 h -0.0274 l -0.11718,-0.004 h -0.008 l -0.12109,-0.004 h -0.0273 l -0.11719,-0.004 h -0.008 l -0.125,-0.004 h -0.0274 l -0.11328,-0.004 h -0.16015 l -0.11719,-0.004 h -0.008 l -0.1211,-0.004 h -0.15234 l -0.1211,-0.004 h -0.0312 l -0.10937,-0.004 H 293.125 l -0.10937,-0.004 h -0.16407 l -0.11328,-0.004 h -0.40234 l -0.0391,-0.004 h -0.82422 z m 0,0"
         inkscape:connector-curvature="0"
         style="fill:#9fe27c" />
      <path
         id="path1409"
         d="m 186.18359,372.36328 c 0,12.85547 -10.42187,23.27344 -23.27343,23.27344 -12.85547,0 -23.27344,-10.41797 -23.27344,-23.27344 0,-12.85156 10.41797,-23.27344 23.27344,-23.27344 12.85156,0 23.27343,10.42188 23.27343,23.27344 z m 0,0"
         inkscape:connector-curvature="0"
         style="fill:#9fe27c" />
      <path
         id="path1411"
         d="m 414.37109,349.96484 c -0.80468,0 -1.60937,0.0391 -2.41406,0.125 -43.15625,4.49219 -83.47656,23.62891 -114.25,54.21875 l -33.32422,33.19532 c -36.80078,36.66406 -96.3164,36.67578 -133.13672,0.0312 -0.65234,-0.64844 -1.26562,-1.32032 -1.83593,-2.01953 -8.15625,-9.9336 -22.82422,-11.3711 -32.757816,-3.21485 -9.933594,8.15625 -11.371094,22.82031 -3.214844,32.75391 0.0039,0.004 0.0078,0.0117 0.01172,0.0156 0.96875,1.17578 1.976562,2.32813 3.023437,3.45703 h 0.0039 c 0.07813,0.082 0.15625,0.16797 0.234376,0.25 v 0.004 l 0.07812,0.082 h 0.0039 c 0.105469,0.11328 0.210937,0.22266 0.316406,0.33594 h 0.0039 l 0.07813,0.082 v 0.004 l 0.07813,0.082 h 0.0039 c 0.05078,0.0547 0.105468,0.10937 0.160156,0.16406 v 0.004 l 0.07813,0.082 h 0.0039 l 0.07813,0.082 c 0.05469,0.0547 0.109375,0.10937 0.164062,0.16406 l 0.0039,0.008 0.08594,0.0859 0.07031,0.0742 0.01172,0.008 0.07031,0.0742 0.414062,0.41406 C 153.39844,525.25 242.27734,525.22656 297.23438,470.48047 l 33.32421,-33.19922 0.14454,-0.14453 0.0312,-0.0274 0.043,-0.0469 0.0352,-0.0312 0.20313,-0.20313 0.0156,-0.0117 0.15234,-0.15235 0.0195,-0.0156 0.1289,-0.12891 0.0312,-0.0273 0.0391,-0.043 0.0352,-0.0312 0.14844,-0.14844 0.0703,-0.0664 0.10547,-0.10546 0.0469,-0.043 0.0274,-0.0274 0.0469,-0.043 0.10547,-0.10546 0.0469,-0.043 0.0898,-0.0899 0.0234,-0.0195 0.0625,-0.0586 0.0742,-0.0742 0.0391,-0.0352 0.0352,-0.0391 0.0391,-0.0352 0.0391,-0.0391 0.0352,-0.0312 0.0351,-0.0351 0.043,-0.0391 0.0312,-0.0312 0.043,-0.0391 0.0234,-0.0234 0.0937,-0.0898 0.0664,-0.0664 0.0352,-0.0312 0.0391,-0.0391 0.0352,-0.0312 0.0391,-0.0352 0.0742,-0.0742 0.0469,-0.043 0.0781,-0.0781 0.0234,-0.0195 0.0742,-0.0703 0.0312,-0.0274 0.043,-0.043 0.0351,-0.0312 0.043,-0.0391 0.0312,-0.0351 0.11719,-0.10547 0.0391,-0.0391 0.0312,-0.0274 0.043,-0.043 0.043,-0.0351 0.10156,-0.10157 0.0469,-0.0391 0.0273,-0.0273 0.043,-0.0391 0.0351,-0.0312 0.0391,-0.0391 0.0351,-0.0312 0.0391,-0.0391 0.0351,-0.0312 0.043,-0.0391 0.0352,-0.0352 0.0391,-0.0312 0.0508,-0.0508 0.0508,-0.0469 0.0469,-0.043 0.0351,-0.0312 0.0391,-0.0352 0.0742,-0.0742 0.0391,-0.0351 0.0391,-0.0312 0.0391,-0.0391 0.0391,-0.0351 0.0352,-0.0352 0.0391,-0.0312 0.0391,-0.0352 0.0703,-0.0664 0.0391,-0.0352 0.0352,-0.0351 0.0469,-0.0391 0.0312,-0.0273 0.043,-0.0391 0.0742,-0.0742 0.0312,-0.0274 0.043,-0.0391 0.0351,-0.0273 0.043,-0.043 0.0391,-0.0352 0.0352,-0.0312 0.0742,-0.0664 0.0352,-0.0312 0.043,-0.0391 0.0352,-0.0351 0.0391,-0.0312 0.0352,-0.0352 0.0469,-0.0391 0.0312,-0.0273 0.043,-0.043 0.0352,-0.0274 0.043,-0.043 0.0351,-0.0273 0.0469,-0.043 0.0547,-0.0469 0.0508,-0.0469 0.0312,-0.0273 0.043,-0.0391 0.0391,-0.0391 0.0352,-0.0312 0.043,-0.0351 0.0352,-0.0352 0.0391,-0.0352 0.043,-0.0391 0.0312,-0.0234 0.0469,-0.043 0.10547,-0.0937 0.11718,-0.10547 0.0352,-0.0312 0.043,-0.0391 0.0312,-0.0273 0.0469,-0.0391 0.0312,-0.0312 0.0469,-0.0352 0.0312,-0.0312 0.043,-0.0391 0.0351,-0.0312 0.082,-0.0703 0.0312,-0.0274 0.0508,-0.043 0.0273,-0.0234 0.0469,-0.043 0.0274,-0.0234 0.0508,-0.0469 0.0273,-0.0234 0.0469,-0.0391 0.0312,-0.0274 0.0469,-0.043 0.0274,-0.0234 0.0469,-0.0391 0.0274,-0.0273 0.0859,-0.0742 0.0391,-0.0312 0.0351,-0.0352 0.0391,-0.0312 0.043,-0.0351 0.0352,-0.0312 0.0469,-0.0391 0.0274,-0.0274 0.0469,-0.0391 0.0391,-0.0312 0.0391,-0.0352 0.043,-0.0391 0.0351,-0.0273 0.0469,-0.0391 0.0625,-0.0547 0.043,-0.0391 0.0351,-0.0312 0.043,-0.0351 0.0352,-0.0312 0.043,-0.0352 0.0391,-0.0351 0.0352,-0.0312 0.043,-0.0352 0.0352,-0.0312 0.043,-0.0352 0.043,-0.0391 0.0312,-0.0273 0.0742,-0.0625 0.0469,-0.0352 0.0352,-0.0312 0.043,-0.0391 0.0312,-0.0274 0.0469,-0.0391 0.0352,-0.0273 0.043,-0.0391 0.0312,-0.0234 0.0469,-0.043 0.0312,-0.0234 0.0469,-0.043 0.0117,-0.008 0.1875,-0.16016 0.0273,-0.0195 0.0508,-0.043 0.0274,-0.0234 0.0508,-0.043 0.0273,-0.0234 0.0508,-0.043 0.0234,-0.0195 0.0508,-0.043 0.0312,-0.0234 0.18359,-0.15234 0.0117,-0.0156 0.0508,-0.0391 0.0312,-0.0273 0.0469,-0.0352 0.0312,-0.0273 0.0469,-0.0391 0.0312,-0.0274 0.0508,-0.0391 0.0234,-0.0234 0.0508,-0.0391 0.0469,-0.0391 0.0312,-0.0274 0.0742,-0.0625 0.0469,-0.0351 0.0312,-0.0274 0.0391,-0.0351 0.043,-0.0312 0.0391,-0.0312 0.043,-0.0352 0.0351,-0.0312 0.0391,-0.0351 0.043,-0.0312 0.0391,-0.0352 0.0391,-0.0273 0.0586,-0.0508 0.0234,-0.0195 0.0781,-0.0625 0.0156,-0.0156 0.0586,-0.0469 0.0391,-0.0273 0.043,-0.0391 0.0352,-0.0274 0.043,-0.0351 0.0391,-0.0312 0.043,-0.0352 0.11719,-0.0937 0.0664,-0.0547 0.0391,-0.0312 0.0508,-0.043 0.0391,-0.0312 0.043,-0.0312 0.0352,-0.0312 0.043,-0.0351 0.043,-0.0312 0.0352,-0.0312 0.043,-0.0352 0.0351,-0.0234 0.0508,-0.043 0.0156,-0.0117 0.17969,-0.14453 0.0351,-0.0274 0.043,-0.0351 0.0352,-0.0274 0.0859,-0.0703 0.0351,-0.0273 0.043,-0.0352 0.0781,-0.0625 0.0469,-0.0352 0.0234,-0.0195 0.0898,-0.0703 0.11719,-0.0937 0.0508,-0.0391 0.0274,-0.0234 0.0508,-0.0391 0.0312,-0.0234 0.0508,-0.0391 0.0273,-0.0234 0.0508,-0.0391 0.0234,-0.0195 L 343.33203,426 v -0.004 l 0.0508,-0.0391 0.0312,-0.0234 0.0469,-0.0391 0.0312,-0.0234 0.0508,-0.0391 0.0351,-0.0273 0.043,-0.0312 0.0352,-0.0274 0.0469,-0.0391 0.0352,-0.0234 0.17578,-0.13672 0.0234,-0.0195 0.0508,-0.0391 0.0273,-0.0234 0.0547,-0.043 0.0234,-0.0156 0.0547,-0.043 0.0234,-0.0195 0.0586,-0.043 0.0156,-0.0117 0.0625,-0.0508 h 0.004 l 0.20703,-0.16406 0.0195,-0.0117 0.0547,-0.043 0.0273,-0.0195 0.0547,-0.043 0.0234,-0.0156 0.0547,-0.043 0.0273,-0.0234 0.0508,-0.0391 0.0273,-0.0195 0.0547,-0.043 h 0.004 l 0.14453,-0.10938 0.004,-0.004 0.0547,-0.0391 0.0781,-0.0586 0.0312,-0.0273 0.0547,-0.0391 0.0234,-0.0195 0.082,-0.0586 0.0547,-0.043 0.0195,-0.0156 0.20703,-0.15625 0.004,-0.004 0.0625,-0.0469 0.0195,-0.0117 0.0547,-0.043 0.0273,-0.0195 0.0508,-0.0391 0.0312,-0.0195 0.0508,-0.043 0.0273,-0.0156 0.0547,-0.043 0.0117,-0.008 0.19921,-0.14844 0.0234,-0.0195 0.082,-0.0586 0.0508,-0.0351 0.0352,-0.0274 0.125,-0.0937 0.0352,-0.0234 c 0.0859,-0.0664 0.17578,-0.13282 0.26562,-0.19922 l 0.0195,-0.0156 0.0586,-0.0391 0.0195,-0.0156 0.0586,-0.043 0.082,-0.0586 0.0234,-0.0156 0.0586,-0.043 0.0234,-0.0195 c 0.0899,-0.0664 0.17969,-0.12891 0.27344,-0.19532 l 0.0195,-0.0156 0.0547,-0.0391 0.0781,-0.0586 0.0352,-0.0234 0.0508,-0.0391 0.0234,-0.0156 0.0586,-0.043 0.0234,-0.0195 c 0.0937,-0.0625 0.18359,-0.12891 0.27344,-0.19531 l 0.0195,-0.0156 0.0586,-0.0391 0.0274,-0.0195 0.0508,-0.0391 0.0312,-0.0195 0.0547,-0.0391 0.0195,-0.0156 c 0.0937,-0.0625 0.1875,-0.13282 0.27734,-0.19532 l 0.0234,-0.0156 0.0508,-0.0352 0.0312,-0.0273 0.0508,-0.0352 0.0312,-0.0195 0.0508,-0.0352 0.0312,-0.0234 0.0547,-0.0391 0.0195,-0.0117 0.0625,-0.0469 0.22656,-0.15625 0.008,-0.008 0.0625,-0.043 0.0234,-0.0156 0.0586,-0.043 0.082,-0.0547 0.0234,-0.0195 0.0703,-0.0469 c 0.0703,-0.0508 0.13672,-0.0976 0.20312,-0.14453 l 0.10547,-0.0703 0.0547,-0.0391 0.0312,-0.0195 0.0508,-0.0391 0.0312,-0.0195 0.0508,-0.0352 0.0312,-0.0234 c 0.0898,-0.0586 0.17969,-0.1211 0.26953,-0.1836 l 0.082,-0.0586 0.0234,-0.0156 0.0547,-0.0351 0.0351,-0.0234 0.0469,-0.0352 0.0352,-0.0234 0.0508,-0.0312 0.0351,-0.0274 0.0469,-0.0312 0.0156,-0.0117 0.1211,-0.082 0.0234,-0.0156 0.0508,-0.0352 0.0351,-0.0234 0.0508,-0.0351 0.0312,-0.0195 0.0508,-0.0352 0.0352,-0.0234 0.0508,-0.0351 0.0274,-0.0195 0.0586,-0.0391 0.0195,-0.0117 0.13672,-0.0937 0.004,-0.004 0.0547,-0.0352 0.0274,-0.0195 0.0547,-0.0352 0.0274,-0.0195 0.082,-0.0547 0.0547,-0.0391 0.0351,-0.0195 0.0508,-0.0351 0.0312,-0.0195 0.0508,-0.0351 0.0273,-0.0195 0.12109,-0.0781 0.0156,-0.0117 0.043,-0.0312 0.043,-0.0273 0.0391,-0.0234 0.0937,-0.0625 0.0312,-0.0234 0.0508,-0.0312 0.0391,-0.0273 0.0469,-0.0312 0.0391,-0.0234 0.043,-0.0312 0.0312,-0.0195 0.10547,-0.0703 0.0273,-0.0195 0.0547,-0.0352 0.0273,-0.0156 0.0547,-0.0352 0.0312,-0.0234 0.0547,-0.0351 0.0273,-0.0156 0.16406,-0.10937 0.20313,-0.13282 0.0195,-0.0117 0.082,-0.0547 0.0586,-0.0352 0.0274,-0.0195 0.0547,-0.0352 0.0312,-0.0234 0.0508,-0.0274 0.0391,-0.0273 0.0703,-0.0469 0.19922,-0.1289 0.0273,-0.0156 0.0547,-0.0351 0.0274,-0.0156 0.0625,-0.043 0.0195,-0.0117 0.0664,-0.043 0.008,-0.004 0.0703,-0.0469 0.0195,-0.0117 c 0.0937,-0.0586 0.19531,-0.125 0.28906,-0.1836 l 0.0195,-0.0117 0.0625,-0.043 0.0234,-0.0117 0.0547,-0.0391 0.0312,-0.0156 0.0586,-0.0391 0.0234,-0.0117 0.0586,-0.0391 0.0312,-0.0195 0.19922,-0.125 0.0156,-0.0117 0.0586,-0.0351 0.0273,-0.0195 0.0586,-0.0352 0.0234,-0.0156 0.0625,-0.0391 0.0234,-0.0156 0.0625,-0.0352 0.0156,-0.0117 c 0.0976,-0.0625 0.19922,-0.125 0.29687,-0.1875 l 0.0156,-0.008 0.0586,-0.0352 0.0274,-0.0195 0.0586,-0.0351 0.0273,-0.0156 0.0547,-0.0351 0.0273,-0.0156 0.0625,-0.0391 0.0117,-0.008 0.0703,-0.043 0.0117,-0.008 0.22266,-0.13671 0.0117,-0.008 0.0625,-0.0391 0.0234,-0.0156 0.0625,-0.0352 0.0234,-0.0156 0.0625,-0.0351 0.0195,-0.0156 c 0.125,-0.0781 0.2539,-0.15625 0.38281,-0.23437 l 0.0117,-0.004 0.0664,-0.0391 0.0195,-0.0156 0.0625,-0.0351 0.0234,-0.0156 0.0586,-0.0351 0.0273,-0.0156 c 0.0977,-0.0586 0.19531,-0.11719 0.28906,-0.17578 l 0.0195,-0.0117 0.0625,-0.0351 0.0234,-0.0156 0.0586,-0.0352 0.0312,-0.0195 0.0547,-0.0312 0.0274,-0.0195 0.0586,-0.0312 0.0273,-0.0156 0.0586,-0.0391 h 0.004 c 0.0781,-0.0469 0.15235,-0.0937 0.23047,-0.13671 l 0.0156,-0.008 0.0625,-0.0391 0.0234,-0.0156 0.0625,-0.0352 0.0234,-0.0117 0.0625,-0.0391 0.0195,-0.0117 0.0664,-0.0391 0.0117,-0.008 c 0.10156,-0.0586 0.20312,-0.11718 0.30469,-0.17968 l 0.0156,-0.008 0.0703,-0.0391 0.0156,-0.0117 0.0664,-0.0391 0.0195,-0.0117 0.0664,-0.0391 0.0117,-0.008 c 0.10547,-0.0586 0.21094,-0.1211 0.3125,-0.17969 l 0.008,-0.004 0.0703,-0.043 0.0156,-0.008 0.0703,-0.0391 0.0117,-0.008 0.0703,-0.043 0.0156,-0.008 0.0703,-0.0391 0.0117,-0.008 c 0.10547,-0.0625 0.20703,-0.12109 0.3125,-0.17969 l 0.008,-0.004 0.0664,-0.0391 0.0234,-0.0117 0.0625,-0.0391 0.0195,-0.008 0.0664,-0.0391 0.0195,-0.0117 0.0664,-0.0391 0.0117,-0.004 c 0.10547,-0.0625 0.21094,-0.12109 0.31641,-0.17969 l 0.008,-0.004 0.0664,-0.0391 0.0234,-0.0117 0.0625,-0.0352 0.0234,-0.0156 0.0625,-0.0351 0.0234,-0.0117 0.0664,-0.0391 h 0.004 c 0.10547,-0.0625 0.21094,-0.1211 0.31641,-0.17969 l 0.0117,-0.004 0.0703,-0.043 0.0156,-0.008 0.0703,-0.0391 0.0156,-0.008 0.0703,-0.0391 0.0156,-0.008 c 0.13281,-0.0742 0.26172,-0.14453 0.39062,-0.21875 l 0.0156,-0.008 0.0664,-0.0352 0.0195,-0.0117 0.0703,-0.0391 0.0117,-0.008 0.0742,-0.0391 0.0117,-0.008 c 0.10547,-0.0586 0.20704,-0.11328 0.3125,-0.17187 l 0.0117,-0.004 0.0664,-0.0391 0.0195,-0.0117 0.0664,-0.0351 0.0234,-0.0117 0.0664,-0.0352 0.0117,-0.008 0.0742,-0.0391 0.004,-0.004 c 0.10938,-0.0586 0.21875,-0.11719 0.32422,-0.17578 l 0.008,-0.004 0.0742,-0.0391 0.0117,-0.008 0.0703,-0.0352 0.0195,-0.0117 0.0703,-0.0351 0.0117,-0.008 0.0703,-0.0391 0.0156,-0.008 0.22656,-0.1211 0.0156,-0.008 0.0586,-0.0312 0.0312,-0.0156 0.0547,-0.0312 0.0937,-0.0469 0.0234,-0.0156 0.0664,-0.0352 0.0117,-0.004 c 0.13281,-0.0703 0.26562,-0.14062 0.39843,-0.21093 l 0.0156,-0.008 0.0703,-0.0391 0.0195,-0.008 0.0664,-0.0352 0.0195,-0.0117 0.0781,-0.0391 c 0.10546,-0.0547 0.21484,-0.11328 0.32031,-0.16797 l 0.008,-0.004 0.0742,-0.0391 0.0859,-0.043 0.0195,-0.0117 0.0664,-0.0352 0.0195,-0.008 0.0703,-0.0352 0.004,-0.004 c 0.10938,-0.0586 0.21875,-0.11329 0.33204,-0.17188 l 0.0781,-0.0391 0.0117,-0.008 0.0742,-0.0352 0.0117,-0.008 0.0781,-0.0391 c 0.16406,-0.0859 0.33594,-0.17187 0.5,-0.2539 l 0.008,-0.004 0.082,-0.0391 v -0.004 c 0.36718,-0.18359 0.73046,-0.36328 1.09375,-0.54687 h 0.008 l 0.082,-0.043 0.0859,-0.043 C 368.5,410.22266 368.72266,410.11328 368.94922,410 h 0.008 c 0.39063,-0.19141 0.78906,-0.38281 1.18359,-0.57031 l 0.008,-0.004 0.16797,-0.0781 c 0.14062,-0.0664 0.28125,-0.13282 0.42187,-0.19922 l 0.008,-0.004 0.0781,-0.0352 0.0117,-0.008 c 0.19922,-0.0898 0.39453,-0.18359 0.59375,-0.27344 v -0.004 l 0.0859,-0.0352 v -0.004 c 0.16797,-0.0781 0.33594,-0.15235 0.50391,-0.23047 l 0.0156,-0.008 0.0703,-0.0312 0.0195,-0.008 0.0742,-0.0351 0.008,-0.004 c 0.19922,-0.0898 0.39844,-0.17969 0.59375,-0.26953 l 0.008,-0.004 0.082,-0.0351 h 0.004 c 0.16797,-0.0781 0.33984,-0.15235 0.50781,-0.23047 l 0.0117,-0.004 0.0781,-0.0351 0.008,-0.004 0.0781,-0.0352 0.0117,-0.004 c 0.16797,-0.0742 0.33985,-0.14844 0.50782,-0.22266 l 0.008,-0.004 0.082,-0.0351 0.0859,-0.0391 c 0.17187,-0.0742 0.34375,-0.14844 0.51953,-0.22266 l 0.004,-0.004 0.0859,-0.0351 c 0.19922,-0.0899 0.40235,-0.17578 0.60547,-0.26172 h 0.004 c 0.40234,-0.17188 0.80859,-0.34375 1.21484,-0.51172 h 0.004 l 0.082,-0.0352 0.008,-0.004 0.0781,-0.0312 0.0156,-0.004 c 0.17188,-0.0742 0.34375,-0.14453 0.51563,-0.21484 l 0.17187,-0.0703 h 0.004 c 0.64062,-0.26171 1.28515,-0.51562 1.92968,-0.76953 0.20704,-0.0781 0.41016,-0.15625 0.61329,-0.23828 h 0.008 l 0.082,-0.0312 0.004,-0.004 c 0.20703,-0.0781 0.41015,-0.15625 0.61718,-0.23438 l 0.0859,-0.0312 0.004,-0.004 c 11.53125,-4.35156 23.57812,-7.19531 35.83593,-8.45703 12.78516,-1.33203 22.07032,-12.77734 20.73438,-25.5625 -1.23438,-11.84375 -11.21094,-20.84375 -23.11719,-20.85937 z m 0,0"
         inkscape:connector-curvature="0"
         style="fill:#378900" />
      <path
         id="path1413"
         d="m 307.36719,28.09375 c 6.42578,-6.425781 16.84375,-6.425781 23.26953,0 l 13.63281,13.632812 c 6.42969,6.425782 6.42969,16.84375 0,23.273438 C 337.84375,71.425781 327.42578,71.425781 321,65 L 307.36719,51.367188 c -6.42969,-6.429688 -6.42969,-16.847657 0,-23.273438 z m 0,0"
         inkscape:connector-curvature="0"
         style="fill:#ffd432" />
      <path
         id="path1415"
         d="m 280.38281,68.707031 c 0.78906,2.226563 2.05469,4.246094 3.71094,5.929688 l 13.63281,13.632812 c 6.42578,6.429688 16.84375,6.429688 23.27344,0 C 327.42578,81.84375 327.42578,71.425781 321,65 L 307.36328,51.367188 c -1.46875,-1.445313 -3.20312,-2.59375 -5.10156,-3.390626 -4.16406,3.535157 -8.28516,7.140626 -12.17969,11.03125 z m 0,0"
         inkscape:connector-curvature="0"
         style="fill:#f4920b" />
      <path
         id="path1417"
         d="m 260.82031,74.636719 c 6.42578,-6.425781 16.84766,-6.425781 23.27344,0 l 13.63281,13.632812 c 6.42578,6.429688 6.42578,16.847659 0,23.273439 -6.42578,6.42969 -16.84765,6.42969 -23.27344,0 L 260.82031,97.910156 c -6.42578,-6.425781 -6.42578,-16.84375 0,-23.273437 z m 0,0"
         inkscape:connector-curvature="0"
         style="fill:#ffd432" />
      <path
         id="path1419"
         d="m 237.54687,121.18359 13.63282,13.63282 c 6.42578,6.42578 16.84765,6.42578 23.27343,0 6.42579,-6.42579 6.42579,-16.84766 0,-23.27344 L 260.82031,97.910156 c -1.68359,-1.652344 -3.70703,-2.917968 -5.92969,-3.710937 l -21.05468,21.054691 c 0.79297,2.22265 2.05859,4.24609 3.71093,5.92968 z m 0,0"
         inkscape:connector-curvature="0"
         style="fill:#f4920b" />
      <path
         id="path1421"
         d="m 191,167.73047 13.63281,13.63281 c 6.42969,6.42578 16.84766,6.42578 23.27344,0 v -0.004 c 6.42578,-6.42578 6.42578,-16.84375 0,-23.26953 l -13.63281,-13.63281 c -1.6836,-1.65234 -3.70703,-2.91797 -5.92969,-3.71094 l -21.05078,21.05469 c 0.78906,2.22266 2.05469,4.24609 3.70703,5.92969 z m 0,0"
         inkscape:connector-curvature="0"
         style="fill:#f4920b" />
      <g
         id="g1433"
         style="fill:#ffd432">
        <path
           id="path1423"
           d="m 214.27344,121.18359 c 6.42968,-6.42578 16.84765,-6.42578 23.27343,0 l 13.63282,13.63282 c 6.42578,6.42578 6.42578,16.84765 0,23.27343 -6.42578,6.42578 -16.84375,6.42578 -23.27344,0 l -13.63281,-13.63281 c -6.42578,-6.42578 -6.42578,-16.84765 0,-23.27344 z m 0,0"
           inkscape:connector-curvature="0" />
        <path
           id="path1425"
           d="m 330.63672,97.910156 c 6.42969,-6.425781 16.84765,-6.425781 23.27344,0 l 13.63281,13.632814 c 6.42969,6.42969 6.42969,16.84765 0,23.27344 -6.42578,6.42578 -16.84375,6.42578 -23.27344,0 l -13.63281,-13.63282 c -6.42578,-6.42578 -6.42578,-16.84765 0,-23.273434 z m 0,0"
           inkscape:connector-curvature="0" />
        <path
           id="path1427"
           d="m 377.18359,51.367188 c 6.42578,-6.429688 16.84766,-6.429688 23.27344,0 L 414.08984,65 c 6.42578,6.425781 6.42578,16.84375 0,23.269531 -6.42578,6.429688 -16.84765,6.429688 -23.27343,0 L 377.18359,74.636719 c -6.42578,-6.425781 -6.42578,-16.84375 0,-23.269531 z m 0,0"
           inkscape:connector-curvature="0" />
        <path
           id="path1429"
           d="m 284.09375,144.45703 c 6.42578,-6.42578 16.84375,-6.42578 23.27344,0 L 321,158.08984 c 6.42578,6.42578 6.42578,16.84766 0,23.27344 -6.42969,6.42578 -16.84766,6.42578 -23.27344,0 l -13.63281,-13.63281 c -6.42578,-6.42969 -6.42578,-16.84766 0,-23.27344 z m 0,0"
           inkscape:connector-curvature="0" />
        <path
           id="path1431"
           d="m 237.54687,191 c 6.42579,-6.42578 16.84766,-6.42578 23.27344,0 l 13.63281,13.63672 c 6.42579,6.42578 6.42579,16.84375 0,23.26953 -6.42578,6.42969 -16.84765,6.42969 -23.27343,0 l -13.63282,-13.63281 c -6.42578,-6.42578 -6.42578,-16.84375 0,-23.27344 z m 0,0"
           inkscape:connector-curvature="0" />
      </g>
      <path
         id="path1435"
         d="m 423.73047,191 c 6.42578,-6.42578 16.84375,-6.42578 23.26953,0 l 13.63281,13.63672 c 6.42969,6.42578 6.42969,16.84375 0,23.26953 -6.42578,6.42969 -16.84375,6.42969 -23.26953,0 l -13.63281,-13.63281 c -6.42969,-6.42578 -6.42969,-16.84375 0,-23.27344 z m 0,0"
         inkscape:connector-curvature="0"
         style="fill:#f4ac03" />
      <path
         id="path1437"
         d="m 470.27344,144.45703 c 6.42578,-6.42578 16.84765,-6.42578 23.27343,0 l 13.63282,13.63281 c 6.42578,6.42578 6.42578,16.84766 0,23.27344 -6.42578,6.42578 -16.84766,6.42578 -23.27344,0 l -13.63281,-13.63281 c -6.42578,-6.42969 -6.42578,-16.84766 0,-23.27344 z m 0,0"
         inkscape:connector-curvature="0"
         style="fill:#f4ac03" />
      <path
         id="path1439"
         d="m 377.18359,237.54687 c 6.42578,-6.42578 16.84766,-6.42578 23.27344,0 l 13.63281,13.63282 c 6.42578,6.42578 6.42578,16.84765 0,23.27343 -6.42578,6.42579 -16.84765,6.42579 -23.27343,0 l -13.63282,-13.63281 c -6.42578,-6.42578 -6.42578,-16.84765 0,-23.27344 z m 0,0"
         inkscape:connector-curvature="0"
         style="fill:#f4ac03" />
    </g>
    <rect
       style="fill:#4d9f6b;fill-opacity:0.31372549;stroke:none;stroke-width:10.03262901;stroke-linecap:square;stroke-linejoin:round;stroke-miterlimit:4;stroke-dasharray:none;stroke-opacity:1;paint-order:normal"
       id="rect3314"
       width="161.2679"
       height="46.348709"
       x="31.837646"
       y="37.814423" />
    <path
       inkscape:connector-curvature="0"
       id="path59"
       style="fill:#d7ffe5;fill-opacity:0.31372549;fill-rule:evenodd;stroke:none;stroke-width:1.1817354;stroke-linejoin:round"
       d="M 31.837653,84.163132 V 199.08229 H 193.10555 V 84.163132 Z" />
  </g>
</svg>
