<?xml version="1.0" encoding="UTF-8" standalone="no"?>
<!-- Created with Inkscape (http://www.inkscape.org/) -->

<svg
   xmlns:dc="http://purl.org/dc/elements/1.1/"
   xmlns:cc="http://creativecommons.org/ns#"
   xmlns:rdf="http://www.w3.org/1999/02/22-rdf-syntax-ns#"
   xmlns:svg="http://www.w3.org/2000/svg"
   xmlns="http://www.w3.org/2000/svg"
   xmlns:sodipodi="http://sodipodi.sourceforge.net/DTD/sodipodi-0.dtd"
   xmlns:inkscape="http://www.inkscape.org/namespaces/inkscape"
   width="161.2679mm"
   height="161.26788mm"
   viewBox="0 0 161.2679 161.26788"
   version="1.1"
   id="svg8"
   inkscape:version="0.92.2 2405546, 2018-03-11"
   sodipodi:docname="flower.svg">
  <defs
     id="defs2">
    <inkscape:perspective
       sodipodi:type="inkscape:persp3d"
       inkscape:vp_x="-85.580624 : 59.924194 : 0"
       inkscape:vp_y="5.5109106e-14 : 899.99985 : 0"
       inkscape:vp_z="104.47465 : 0 : 0"
       inkscape:persp3d-origin="50.957147 : 91.821412 : 1"
       id="perspective10" />
  </defs>
  <sodipodi:namedview
     id="base"
     pagecolor="#ffffff"
     bordercolor="#666666"
     borderopacity="1.0"
     inkscape:pageopacity="0.0"
     inkscape:pageshadow="2"
     inkscape:zoom="0.49497475"
     inkscape:cx="-17.054546"
     inkscape:cy="256.33501"
     inkscape:document-units="mm"
     inkscape:current-layer="layer1"
     showgrid="false"
     inkscape:snap-bbox="true"
     inkscape:bbox-nodes="true"
     inkscape:snap-bbox-edge-midpoints="true"
     inkscape:snap-bbox-midpoints="true"
     fit-margin-top="0"
     fit-margin-left="0"
     fit-margin-right="0"
     fit-margin-bottom="0"
     inkscape:window-width="1920"
     inkscape:window-height="1016"
     inkscape:window-x="0"
     inkscape:window-y="30"
     inkscape:window-maximized="1" />
  <metadata
     id="metadata5">
    <rdf:RDF>
      <cc:Work
         rdf:about="">
        <dc:format>image/svg+xml</dc:format>
        <dc:type
           rdf:resource="http://purl.org/dc/dcmitype/StillImage" />
        <dc:title></dc:title>
      </cc:Work>
    </rdf:RDF>
  </metadata>
  <g
     inkscape:label="Layer 1"
     inkscape:groupmode="layer"
     id="layer1"
     transform="translate(-31.837645,-37.814423)">
    <g
       id="g1122">
      <rect
         y="152.73358"
         x="31.837646"
         height="46.348709"
         width="161.2679"
         id="rect3314-5"
         style="fill:#afdec0;fill-opacity:0.31372549;stroke:none;stroke-width:10.03262901;stroke-linecap:square;stroke-linejoin:round;stroke-miterlimit:4;stroke-dasharray:none;stroke-opacity:1;paint-order:normal" />
      <g
         transform="matrix(0.26458333,0,0,0.26458333,44.322165,53.646277)"
         id="g920">
        <path
           inkscape:connector-curvature="0"
           style="fill:#ff5c7d"
           d="m 115.17,153.505 -12.861,-3.896 -5.273,12.349 c -0.674,1.582 -16.567,39.141 -22.163,88.931 l 104.868,26.089 19.438,-82.163 c -42.334,-28.507 -82.325,-40.797 -84.009,-41.31 z"
           id="path826" />
        <path
           inkscape:connector-curvature="0"
           style="fill:#ff2b67"
           d="m 416.752,161.957 -5.288,-12.349 -12.861,3.896 c -1.714,0.513 -42.554,13.066 -85.386,42.246 l 50.815,81.24 74.78,-26.675 c -5.624,-49.496 -21.401,-86.791 -22.06,-88.358 z"
           id="path828" />
        <path
           inkscape:connector-curvature="0"
           style="fill:#ff7c96"
           d="M 175.551,282.074 C 130.521,245.907 72.861,226 15,226 H 0 v 15 c 0,140.61 115.39,255 256,255 z"
           id="path830" />
        <path
           inkscape:connector-curvature="0"
           style="fill:#ff5c7d"
           d="m 497,226 c -57.861,0 -115.521,19.907 -160.551,56.074 L 256,496 c 140.61,0 256,-114.39 256,-255 v -15 z"
           id="path832" />
        <g
           id="g838">
	<rect
   x="91"
   y="76"
   style="fill:#ff7c96"
   width="30"
   height="30"
   id="rect834" />

	<rect
   x="241"
   y="16"
   style="fill:#ff7c96"
   width="30"
   height="30"
   id="rect836" />

</g>
        <g
           id="g844">
	<rect
   x="391"
   y="76"
   style="fill:#ff5c7d"
   width="30"
   height="30"
   id="rect840" />

	<rect
   x="482"
   y="166"
   style="fill:#ff5c7d"
   width="30"
   height="30"
   id="rect842" />

</g>
        <rect
           x="0"
           y="166"
           style="fill:#ff7c96"
           width="30"
           height="30"
           id="rect846" />
        <rect
           x="256"
           y="16"
           style="fill:#ff5c7d"
           width="15"
           height="30"
           id="rect848" />
        <path
           inkscape:connector-curvature="0"
           style="fill:#ff9aae"
           d="m 265.901,109.9 -9.901,-9 -9.901,9 C 242.199,113.2 151,196 151,301 c 0,105.3 91.5,182.401 95.4,185.4 l 9.6,8.101 9.6,-8.101 C 269.5,483.401 361,406.3 361,301 361,196 269.801,113.2 265.901,109.9 Z"
           id="path850" />
        <path
           inkscape:connector-curvature="0"
           style="fill:#ff7c96"
           d="m 361,301 c 0,105.3 -91.5,182.401 -95.4,185.4 l -9.6,8.1 V 100.9 l 9.901,9 C 269.801,113.2 361,196 361,301 Z"
           id="path852" />
        <g
           id="g854">
</g>
        <g
           id="g856">
</g>
        <g
           id="g858">
</g>
        <g
           id="g860">
</g>
        <g
           id="g862">
</g>
        <g
           id="g864">
</g>
        <g
           id="g866">
</g>
        <g
           id="g868">
</g>
        <g
           id="g870">
</g>
        <g
           id="g872">
</g>
        <g
           id="g874">
</g>
        <g
           id="g876">
</g>
        <g
           id="g878">
</g>
        <g
           id="g880">
</g>
        <g
           id="g882">
</g>
      </g>
      <path
         d="M 31.837645,84.163133 V 199.0823 H 193.10554 V 84.163133 Z"
         style="fill:#d7ffe5;fill-opacity:0.31372549;fill-rule:evenodd;stroke:none;stroke-width:1.1817354;stroke-linejoin:round"
         id="path59"
         inkscape:connector-curvature="0" />
      <rect
         y="37.814423"
         x="31.837646"
         height="46.348709"
         width="161.2679"
         id="rect3314"
         style="fill:#4d9f6b;fill-opacity:0.31372549;stroke:none;stroke-width:10.03262901;stroke-linecap:square;stroke-linejoin:round;stroke-miterlimit:4;stroke-dasharray:none;stroke-opacity:1;paint-order:normal" />
    </g>
  </g>
</svg>
