<?xml version="1.0" encoding="UTF-8" standalone="no"?>
<!-- Created with Inkscape (http://www.inkscape.org/) -->

<svg
   xmlns:dc="http://purl.org/dc/elements/1.1/"
   xmlns:cc="http://creativecommons.org/ns#"
   xmlns:rdf="http://www.w3.org/1999/02/22-rdf-syntax-ns#"
   xmlns:svg="http://www.w3.org/2000/svg"
   xmlns="http://www.w3.org/2000/svg"
   xmlns:sodipodi="http://sodipodi.sourceforge.net/DTD/sodipodi-0.dtd"
   xmlns:inkscape="http://www.inkscape.org/namespaces/inkscape"
   width="161.2679mm"
   height="161.26788mm"
   viewBox="0 0 161.2679 161.26788"
   version="1.1"
   id="svg8"
   inkscape:version="0.92.2 2405546, 2018-03-11"
   sodipodi:docname="palm.svg">
  <defs
     id="defs2">
    <inkscape:perspective
       sodipodi:type="inkscape:persp3d"
       inkscape:vp_x="-85.580624 : 59.924194 : 0"
       inkscape:vp_y="5.5109106e-14 : 899.99985 : 0"
       inkscape:vp_z="104.47465 : 0 : 0"
       inkscape:persp3d-origin="50.957147 : 91.821412 : 1"
       id="perspective10" />
  </defs>
  <sodipodi:namedview
     id="base"
     pagecolor="#ffffff"
     bordercolor="#666666"
     borderopacity="1.0"
     inkscape:pageopacity="0.0"
     inkscape:pageshadow="2"
     inkscape:zoom="0.7"
     inkscape:cx="176.1074"
     inkscape:cy="329.68579"
     inkscape:document-units="mm"
     inkscape:current-layer="layer1"
     showgrid="false"
     inkscape:snap-bbox="true"
     inkscape:bbox-nodes="true"
     inkscape:snap-bbox-edge-midpoints="true"
     inkscape:snap-bbox-midpoints="true"
     fit-margin-top="0"
     fit-margin-left="0"
     fit-margin-right="0"
     fit-margin-bottom="0"
     inkscape:window-width="1920"
     inkscape:window-height="1016"
     inkscape:window-x="0"
     inkscape:window-y="30"
     inkscape:window-maximized="1" />
  <metadata
     id="metadata5">
    <rdf:RDF>
      <cc:Work
         rdf:about="">
        <dc:format>image/svg+xml</dc:format>
        <dc:type
           rdf:resource="http://purl.org/dc/dcmitype/StillImage" />
        <dc:title></dc:title>
      </cc:Work>
    </rdf:RDF>
  </metadata>
  <g
     inkscape:label="Layer 1"
     inkscape:groupmode="layer"
     id="layer1"
     transform="translate(-31.837645,-37.814423)">
    <rect
       style="fill:#afdec0;fill-opacity:0.31372549;stroke:none;stroke-width:10.03262901;stroke-linecap:square;stroke-linejoin:round;stroke-miterlimit:4;stroke-dasharray:none;stroke-opacity:1;paint-order:normal"
       id="rect3314-5"
       width="161.2679"
       height="46.348709"
       x="31.837646"
       y="152.73358" />
    <g
       id="g1225"
       transform="matrix(0.26458333,0,0,0.26458333,44.322165,50.395343)">
      <path
         id="path1143"
         d="M 315.157,496.174 296.966,166.453 c -0.438,-7.951 -7.014,-14.174 -14.977,-14.174 h -51.978 c -7.963,0 -14.539,6.223 -14.977,14.174 l -18.191,329.721 c -0.227,4.115 1.249,8.143 4.082,11.137 2.833,2.993 6.773,4.689 10.895,4.689 h 88.36 c 4.122,0 8.062,-1.696 10.895,-4.689 2.833,-2.995 4.309,-7.022 4.082,-11.137 z"
         style="fill:#d68131"
         inkscape:connector-curvature="0" />
      <path
         id="path1145"
         d="m 196.843,496.174 18.191,-329.721 c 0.438,-7.951 7.014,-14.174 14.977,-14.174 H 256 V 512 h -44.18 c -4.122,0 -8.062,-1.696 -10.895,-4.689 -2.833,-2.995 -4.309,-7.022 -4.082,-11.137 z"
         style="fill:#eaae56"
         inkscape:connector-curvature="0" />
      <path
         id="path1147"
         d="M 256,173.558 401.313,25.082 C 405.04,20.813 406.043,14.809 403.906,9.56 401.769,4.312 396.856,0.715 391.207,0.265 388.276,0.03 318.901,-4.938 275.031,41.067 267.474,48.992 256,68.287 256,68.287 250.915,58.235 244.676,49.148 236.969,41.066 193.098,-4.938 123.722,0.031 120.793,0.265 c -5.649,0.45 -10.562,4.047 -12.699,9.295 -2.137,5.249 -1.134,11.254 2.593,15.522 z"
         style="fill:#62de83"
         inkscape:connector-curvature="0" />
      <path
         id="path1149"
         d="M 256,173.558 V 68.287 C 250.915,58.235 244.676,49.148 236.969,41.066 193.098,-4.938 123.722,0.031 120.793,0.265 c -5.649,0.45 -10.562,4.047 -12.699,9.295 -2.137,5.249 -1.134,11.254 2.593,15.522 z"
         style="fill:#3bc480"
         inkscape:connector-curvature="0" />
      <path
         id="path1151"
         d="M 252.222,163.094 C 215.533,121.721 176.288,101.651 135.59,103.422 72.078,106.196 30.172,161.747 28.419,164.11 c -3.376,4.552 -3.898,10.617 -1.351,15.68 2.548,5.062 7.731,8.256 13.398,8.256 H 241 c 5.904,0 11.258,-3.463 13.68,-8.847 2.421,-5.384 1.459,-11.688 -2.458,-16.105 z"
         style="fill:#62de83"
         inkscape:connector-curvature="0" />
      <path
         id="path1153"
         d="m 482.755,163.094 c -36.689,-41.373 -75.934,-61.443 -116.632,-59.672 -63.512,2.774 -105.418,58.325 -107.171,60.688 -3.376,4.552 -3.898,10.617 -1.351,15.68 2.548,5.062 7.731,8.256 13.398,8.256 h 200.533 c 5.904,0 11.258,-3.463 13.68,-8.847 2.422,-5.384 1.46,-11.688 -2.457,-16.105 z"
         style="fill:#3bc480"
         inkscape:connector-curvature="0" />
      <polygon
         id="polygon1155"
         points="301.576,250.011 208.585,283.337 206.792,315.846 303.3,281.26 "
         style="fill:#9e5a36" />
      <polygon
         id="polygon1157"
         points="256,266.345 208.585,283.337 206.792,315.846 256,298.212 "
         style="fill:#d68131" />
      <polygon
         id="polygon1159"
         points="256,399.911 308.802,380.988 307.078,349.739 256,368.044 202.861,387.087 201.068,419.598 "
         style="fill:#9e5a36" />
      <polygon
         id="polygon1161"
         points="202.861,387.087 201.068,419.598 256,399.911 256,368.044 "
         style="fill:#d68131" />
      <g
         id="g1163">
</g>
      <g
         id="g1165">
</g>
      <g
         id="g1167">
</g>
      <g
         id="g1169">
</g>
      <g
         id="g1171">
</g>
      <g
         id="g1173">
</g>
      <g
         id="g1175">
</g>
      <g
         id="g1177">
</g>
      <g
         id="g1179">
</g>
      <g
         id="g1181">
</g>
      <g
         id="g1183">
</g>
      <g
         id="g1185">
</g>
      <g
         id="g1187">
</g>
      <g
         id="g1189">
</g>
      <g
         id="g1191">
</g>
    </g>
    <path
       inkscape:connector-curvature="0"
       id="path59"
       style="fill:#d7ffe5;fill-opacity:0.31372549;fill-rule:evenodd;stroke:none;stroke-width:1.1817354;stroke-linejoin:round"
       d="M 31.837653,84.163132 V 199.08229 H 193.10555 V 84.163132 Z" />
    <rect
       style="fill:#4d9f6b;fill-opacity:0.31372549;stroke:none;stroke-width:10.03262901;stroke-linecap:square;stroke-linejoin:round;stroke-miterlimit:4;stroke-dasharray:none;stroke-opacity:1;paint-order:normal"
       id="rect3314"
       width="161.2679"
       height="46.348709"
       x="31.837646"
       y="37.814423" />
  </g>
</svg>
